<svg width="23" height="25" viewBox="0 0 23 25" fill="none" xmlns="http://www.w3.org/2000/svg">
<path d="M8.00004 16.6309H4.33604C4.02404 16.6309 3.86804 16.6309 3.73604 16.6442C3.1231 16.7053 2.55019 16.9766 2.11463 17.4122C1.67908 17.8477 1.40774 18.4206 1.34671 19.0336C1.33337 19.1656 1.33337 19.3216 1.33337 19.6336C1.33337 20.0069 1.33337 20.1936 1.34937 20.3416C1.42678 21.0329 1.77124 21.6666 2.30929 22.1074C2.84733 22.5483 3.53635 22.7615 4.22937 22.7016C4.37604 22.6882 4.56004 22.6522 4.92537 22.5789L5.32004 22.4989C5.82671 22.3989 6.08137 22.3482 6.29471 22.2656C6.72434 22.0996 7.10367 21.8253 7.39574 21.4692C7.68782 21.113 7.88269 20.6874 7.96137 20.2336C8.00004 20.0069 8.00004 19.7482 8.00004 19.2322V7.66958C8.00004 5.57625 8.00004 4.53091 8.60404 3.79358C9.20937 3.05625 10.2347 2.85091 12.288 2.44025L14.9547 1.90691C17.9054 1.31625 19.3814 1.02158 20.3574 1.82158C21.3334 2.62158 21.3334 4.12691 21.3334 7.13625V7.29758M21.3334 7.29758V13.9642M21.3334 7.29758L8.00004 9.96425M21.3334 13.9642V16.5642C21.3334 17.0829 21.3334 17.3402 21.2934 17.5669C21.2149 18.0204 21.0205 18.4459 20.7289 18.802C20.4373 19.158 20.0585 19.4326 19.6294 19.5989C19.4147 19.6816 19.1614 19.7322 18.6534 19.8336L18.2587 19.9136C17.8934 19.9856 17.7107 20.0229 17.5614 20.0349C16.8686 20.0945 16.1799 19.8811 15.6421 19.4403C15.1044 18.9994 14.7601 18.366 14.6827 17.6749C14.6667 17.5282 14.6667 17.3416 14.6667 16.9682C14.6667 16.6549 14.6667 16.4989 14.68 16.3669C14.7411 15.754 15.0124 15.1811 15.448 14.7455C15.8835 14.3099 16.4564 14.0386 17.0694 13.9776C17.2014 13.9642 17.3574 13.9642 17.6694 13.9642H21.3334Z" stroke="white" style="stroke:white;stroke-opacity:1;" stroke-width="2.66667"/>
</svg>
